<svg xmlns="http://www.w3.org/2000/svg" version="1.1" xmlns:xlink="http://www.w3.org/1999/xlink" xmlns:svgjs="http://svgjs.com/svgjs" width="1440" height="560" preserveAspectRatio="none" viewBox="0 0 1440 560">
    <g mask="url(&quot;#SvgjsMask2084&quot;)" fill="none">
        <rect width="1440" height="560" x="0" y="0" fill="url(#SvgjsLinearGradient2085)"></rect>
        <path d="M0 0L94.72 0L0 263.57z" fill="rgba(255, 255, 255, .1)"></path>
        <path d="M0 263.57L94.72 0L142.76999999999998 0L0 324.11z" fill="rgba(255, 255, 255, .075)"></path>
        <path d="M0 324.11L142.76999999999998 0L813.22 0L0 444.05z" fill="rgba(255, 255, 255, .05)"></path>
        <path d="M0 444.05L813.22 0L860.5400000000001 0L0 459.82z" fill="rgba(255, 255, 255, .025)"></path>
        <path d="M1440 560L887.32 560L1440 400.82z" fill="rgba(0, 0, 0, .1)"></path>
        <path d="M1440 400.82L887.32 560L812.72 560L1440 288.53z" fill="rgba(0, 0, 0, .075)"></path>
        <path d="M1440 288.53L812.72 560L437.11 560L1440 229.89999999999998z" fill="rgba(0, 0, 0, .05)"></path>
        <path d="M1440 229.89999999999998L437.11 560L161.39 560L1440 188.80999999999997z" fill="rgba(0, 0, 0, .025)"></path>
    </g>
    <defs>
        <mask id="SvgjsMask2084">
            <rect width="1440" height="560" fill="#ffffff"></rect>
        </mask>
        <linearGradient x1="15.28%" y1="-39.29%" x2="84.72%" y2="139.29%" gradientUnits="userSpaceOnUse" id="SvgjsLinearGradient2085">
            <stop stop-color="rgba(26, 107, 190, 1)" offset="0"></stop>
            <stop stop-color="rgba(111, 174, 255, 1)" offset="1"></stop>
        </linearGradient>
    </defs>
</svg>